# xmcd CD database file
#
# Track frame offsets:
#	150
#	18637
#	43800
#
# Disc length: 827 seconds
#
# Revision: 0
# Processed by: cddbd v1.5.1PL0 Copyright (c) Steve Scherf et al.
# Submitted via: CDex 1.51
#
DISCID=21033903
DTITLE=谷村有美 - 信じるものに救われる
DYEAR=1995
DGENRE=JPop
TTITLE0=信じるものに救われる
TTITLE1=恋に落ちた
TTITLE2=信じるものに救われる(カラオケ)
EXTD=YEAR: 1995
EXTT0=
EXTT1=
EXTT2=
PLAYORDER=
